{"title":"30 Seconds To Mars - This Is War (2009) [FLAC]","uid":5744840,"size":415948662,"categoryP":"audio","categoryS":"flac","magnet":"?xt=urn:btih:c3da10f84832556c6a30a10805835368e0fa51f4&amp;dn=30+Seconds+To+Mars+-+This+Is+War+%282009%29+%5BFLAC%5D&amp;tr=udp%3A%2F%2Ftracker.openbittorrent.com%3A80&amp;tr=udp%3A%2F%2Fopen.demonii.com%3A1337&amp;tr=udp%3A%2F%2Ftracker.coppersurfer.tk%3A6969&amp;tr=udp%3A%2F%2Fexodus.desync.com%3A6969","seeders":0,"leechers":0,"uploader":"KingMcQueen","files":14,"time":1281173166,"description":"Exact Audio Copy V0.99 prebeta 5 from 4. May 2009\n\nEAC extraction logfile from 4. December 2009, 12:50\n\n30 Seconds To Mars / This Is War\n\nUsed drive  : SONY    CD-RW  CRX230EE   Adapter: 0  ID: 1\n\nRead mode               : Secure\nUtilize accurate stream : Yes\nDefeat audio cache      : Yes\nMake use of C2 pointers : No\n\nRead offset correction                      : 6\nOverread into Lead-In and Lead-Out          : No\nFill up missing offset samples with silence : Yes\nDelete leading and trailing silent blocks   : No\nNull samples used in CRC calculations       : Yes\nUsed interface                              : Native Win32 interface for Win NT &amp; 2000\nGap handling                                : Appended to previous track\n\nUsed output format              : User Defined Encoder\nSelected bitrate                : 128 kBit/s\nQuality                         : High\nAdd ID3 tag                     : No\nCommand line compressor         : C:\\Program Files\\Exact Audio Copy\\Flac\\flac.exe\nAdditional command line options : -6 -V -T &quot;artist=%a&quot; -T &quot;title=%t&quot; -T &quot;album=%g&quot; -T &quot;date=%y&quot; -T &quot;tracknumber=%n&quot; -T &quot;genre=%m&quot; -T comment=&quot;%e&quot; -T &quot;comment=EAC (Secure Mode)&quot; %s\n\n\nTOC of the extracted CD\n\n     Track |   Start  |  Length  | Start sector | End sector \n    ---------------------------------------------------------\n        1  |  0:00.00 |  2:23.70 |         0    |    10794   \n        2  |  2:23.70 |  5:40.60 |     10795    |    36354   \n        3  |  8:04.55 |  5:47.50 |     36355    |    62429   \n        4  | 13:52.30 |  5:27.02 |     62430    |    86956   \n        5  | 19:19.32 |  1:58.08 |     86957    |    95814   \n        6  | 21:17.40 |  6:12.10 |     95815    |   123724   \n        7  | 27:29.50 |  4:33.35 |    123725    |   144234   \n        8  | 32:03.10 |  5:42.72 |    144235    |   169956   \n        9  | 37:46.07 |  5:38.35 |    169957    |   195341   \n       10  | 43:24.42 |  5:59.45 |    195342    |   222311   \n       11  | 49:24.12 |  6:54.03 |    222312    |   253364   \n       12  | 56:18.15 |  4:26.27 |    253365    |   273341   \n\n\nTrack  1\n\n     Filename E:\\Flac\\30 Seconds To Mars - This Is War\\01 - Escape.wav\n\n     Pre-gap length  0:00:02.00\n\n     Peak level 98.7 %\n     Track quality 100.0 %\n     Test CRC 22580ADB\n     Copy CRC 22580ADB\n     Copy OK\n\nTrack  2\n\n     Filename E:\\Flac\\30 Seconds To Mars - This Is War\\02 - Night Of The Hunter.wav\n\n     Peak level 98.7 %\n     Track quality 100.0 %\n     Test CRC F0DE05AB\n     Copy CRC F0DE05AB\n     Copy OK\n\nTrack  3\n\n     Filename E:\\Flac\\30 Seconds To Mars - This Is War\\03 - Kings And Queens.wav\n\n     Peak level 98.7 %\n     Track quality 99.9 %\n     Test CRC F335B1B0\n     Copy CRC F335B1B0\n     Copy OK\n\nTrack  4\n\n     Filename E:\\Flac\\30 Seconds To Mars - This Is War\\04 - This Is War.wav\n\n     Pre-gap length  0:00:00.20\n\n     Peak level 98.7 %\n     Track quality 100.0 %\n     Test CRC BCFEB92A\n     Copy CRC BCFEB92A\n     Copy OK\n\nTrack  5\n\n     Filename E:\\Flac\\30 Seconds To Mars - This Is War\\05 - 100 Suns.wav\n\n     Peak level 60.2 %\n     Track quality 100.0 %\n     Test CRC 1BC5B86F\n     Copy CRC 1BC5B86F\n     Copy OK\n\nTrack  6\n\n     Filename E:\\Flac\\30 Seconds To Mars - This Is War\\06 - Hurricane.wav\n\n     Peak level 98.7 %\n     Track quality 100.0 %\n     Test CRC BE69A4F2\n     Copy CRC BE69A4F2\n     Copy OK\n\nTrack  7\n\n     Filename E:\\Flac\\30 Seconds To Mars - This Is War\\07 - Closer To The Edge.wav\n\n     Pre-gap length  0:00:00.89\n\n     Peak level 98.7 %\n     Track quality 100.0 %\n     Test CRC D12DEF1D\n     Copy CRC D12DEF1D\n     Copy OK\n\nTrack  8\n\n     Filename E:\\Flac\\30 Seconds To Mars - This Is War\\08 - Vox Populi.wav\n\n     Peak level 98.7 %\n     Track quality 100.0 %\n     Test CRC 02C8182F\n     Copy CRC 02C8182F\n     Copy OK\n\nTrack  9\n\n     Filename E:\\Flac\\30 Seconds To Mars - This Is War\\09 - Search And Destroy.wav\n\n     Peak level 98.7 %\n     Track quality 100.0 %\n     Test CRC EAAEF5CA\n     Copy CRC EAAEF5CA\n     Copy OK\n\nTrack 10\n\n     Filename E:\\Flac\\30 Seconds To Mars - This Is War\\10 - Alibi.wav\n\n     Peak level 98.7 %\n     Track quality 99.9 %\n     Test CRC 6544A2D3\n     Copy CRC 6544A2D3\n     Copy OK\n\nTrack 11\n\n     Filename E:\\Flac\\30 Seconds To Mars - This Is War\\11 - Stranger In A Strange Land.wav\n\n     Peak level 98.7 %\n     Track quality 100.0 %\n     Test CRC 5738D4AD\n     Copy CRC 5738D4AD\n     Copy OK\n\nTrack 12\n\n     Filename E:\\Flac\\30 Seconds To Mars - This Is War\\12 - L490.wav\n\n     Peak level 98.7 %\n     Track quality 100.0 %\n     Test CRC C9723B02\n     Copy CRC C9723B02\n     Copy OK\n\nNo errors occurred\n\nEnd of status report\n","torrent":{"xt":"urn:btih:c3da10f84832556c6a30a10805835368e0fa51f4","amp;dn":"30+Seconds+To+Mars+-+This+Is+War+%282009%29+%5BFLAC%5D","amp;tr":["udp%3A%2F%2Ftracker.openbittorrent.com%3A80","udp%3A%2F%2Fopen.demonii.com%3A1337","udp%3A%2F%2Ftracker.coppersurfer.tk%3A6969","udp%3A%2F%2Fexodus.desync.com%3A6969"],"infoHash":"c3da10f84832556c6a30a10805835368e0fa51f4","infoHashBuffer":{"type":"Buffer","data":[195,218,16,248,72,50,85,108,106,48,161,8,5,131,83,104,224,250,81,244]},"announce":[],"urlList":[]}}